<svg width="9" height="14" viewBox="0 0 9 14" fill="none" xmlns="http://www.w3.org/2000/svg">
<path d="M4.746 12.14C3.67733 12.14 2.79067 11.9113 2.086 11.454C1.386 10.992 0.968333 10.3107 0.833 9.41L2.191 9.326C2.34033 9.89533 2.639 10.3223 3.087 10.607C3.535 10.8917 4.08567 11.034 4.739 11.034C5.131 11.034 5.49733 10.9663 5.838 10.831C6.18333 10.6957 6.461 10.5067 6.671 10.264C6.88567 10.0213 6.993 9.73433 6.993 9.403C6.993 8.95967 6.86 8.605 6.594 8.339C6.33267 8.073 5.915 7.863 5.341 7.709L3.598 7.254C2.84667 7.06267 2.25167 6.76167 1.813 6.351C1.37433 5.94033 1.15267 5.38967 1.148 4.699C1.14333 4.11567 1.295 3.60233 1.603 3.159C1.91567 2.71567 2.345 2.37033 2.891 2.123C3.44167 1.87567 4.07633 1.752 4.795 1.752C5.48567 1.752 6.08067 1.885 6.58 2.151C7.084 2.41233 7.47367 2.76 7.749 3.194C8.029 3.628 8.17833 4.10167 8.197 4.615L6.881 4.685C6.77833 4.083 6.55667 3.628 6.216 3.32C5.88 3.00733 5.40633 2.851 4.795 2.851C4.50567 2.851 4.22567 2.88833 3.955 2.963C3.689 3.033 3.44867 3.14033 3.234 3.285C3.024 3.42967 2.856 3.60933 2.73 3.824C2.604 4.03867 2.541 4.28833 2.541 4.573C2.541 4.937 2.66933 5.22633 2.926 5.441C3.18267 5.651 3.64467 5.85867 4.312 6.064L5.992 6.54C6.85067 6.778 7.462 7.149 7.826 7.653C8.19467 8.15233 8.379 8.731 8.379 9.389C8.379 9.92567 8.22733 10.4017 7.924 10.817C7.62067 11.2277 7.19367 11.552 6.643 11.79C6.097 12.0233 5.46467 12.14 4.746 12.14ZM4.116 13.463V11.657H5.313V13.463H4.116ZM4.2 2.172V0.366H5.397V2.172H4.2Z" fill="#98908B"/>
</svg>
